<?xml version="1.0" encoding="utf-8"?>
<!-- Generator: Adobe Illustrator 16.0.0, SVG Export Plug-In . SVG Version: 6.00 Build 0)  -->
<!DOCTYPE svg PUBLIC "-//W3C//DTD SVG 1.1//EN" "http://www.w3.org/Graphics/SVG/1.1/DTD/svg11.dtd">
<svg version="1.1" id="Layer_1" xmlns="http://www.w3.org/2000/svg" xmlns:xlink="http://www.w3.org/1999/xlink" x="0px" y="0px"
	 width="600px" height="600px" viewBox="0 0 600 600" enable-background="new 0 0 600 600" xml:space="preserve">
<g>
	<g>
		<path fill-rule="evenodd" clip-rule="evenodd" d="M0.778,520.146c0,4.548,0,9.1,0,13.647c59.23,0,118.46,0,177.691,0
			c-0.841-5.721,0.254-12.954-2.843-16.916c-18.392-23.531-37.604-46.431-56.873-69.265c-6.832-8.094-10.278-16.743-10.236-27.459
			c0.242-60.746,0.117-121.493,0.117-182.238c0-11.912,0-23.825,0-35.737c3.352,3.492,5.353,7.414,7.188,11.414
			c15.822,34.491,31.615,68.994,47.41,103.497c33.07,72.232,66.136,144.47,99.201,216.704c6.509,0,13.019,0,19.527,0
			c0.219-0.941,0.322-1.93,0.672-2.819c36.768-93.19,73.553-186.375,110.343-279.558c5.996-15.189,12.017-30.371,18.026-45.555
			c2.014,2.093,2.436,3.841,2.436,5.588c0.032,84.095,0.119,168.189-0.231,252.286c-0.02,4.557-2.717,10.088-5.946,13.473
			c-11.883,12.436-24.182,24.53-37.007,35.994c-6.467,5.778-10.676,11.799-10.186,20.592c78.757,0,157.513,0,236.271,0
			c0-3.898,0-7.799,0-11.696c-16.395-15.649-33.007-31.077-48.965-47.155c-2.728-2.75-3.687-8.284-3.693-12.532
			c-0.195-109.642-0.252-219.282,0.141-328.924c0.02-5.43,3.031-12.11,6.874-16.044c14.722-15.071,30.354-29.258,45.644-43.775
			c0-3.899,0-7.798,0-11.698c-55.326,0-110.649,0-165.975,0c-0.599,1.849-1.092,3.742-1.813,5.543
			c-36.823,91.792-73.66,183.578-110.541,275.346c-0.846,2.104-2.234,3.987-3.889,6.879C269.834,253,226.104,157.485,182.375,61.968
			c-57.929,0-115.858,0-173.787,0c1.836,5.958,2.176,13.084,5.769,17.673c15.801,20.181,32.979,39.292,48.669,59.555
			c4.588,5.924,8.314,14.354,8.363,21.662c0.566,87.662,0.561,175.329,0.013,262.992c-0.045,7.421-3.71,15.751-8.064,22.019
			c-8.303,11.954-18.193,22.83-27.652,33.96C24.173,493.372,12.425,506.714,0.778,520.146z"/>
	</g>
</g>
</svg>
