<?xml version="1.0" encoding="utf-8"?>
<!-- Generator: Adobe Illustrator 16.0.0, SVG Export Plug-In . SVG Version: 6.00 Build 0)  -->
<!DOCTYPE svg PUBLIC "-//W3C//DTD SVG 1.1//EN" "http://www.w3.org/Graphics/SVG/1.1/DTD/svg11.dtd">
<svg version="1.1" xmlns="http://www.w3.org/2000/svg" xmlns:xlink="http://www.w3.org/1999/xlink" x="0px" y="0px" width="500px"
	 height="100px" viewBox="0 200 500 100" enable-background="new 0 200 500 100" xml:space="preserve">
<g id="Layer_1">
	<g display="none">
		<g display="inline">
			<path fill="#FFD039" d="M95.906,239.118c-0.329-1.021-1.205-1.76-2.262-1.911l-27.469-3.916l-12.273-24.407
				c-0.949-1.885-4.037-1.885-4.985,0l-12.273,24.407l-27.47,3.916c-1.057,0.151-1.933,0.89-2.262,1.908
				c-0.326,1.015-0.045,2.131,0.728,2.867l19.844,18.984L22.8,287.756c-0.182,1.047,0.243,2.101,1.099,2.729
				c0.856,0.63,1.991,0.723,2.932,0.231l24.578-12.681l24.58,12.681c0.402,0.209,0.842,0.313,1.28,0.313
				c0.583,0,1.163-0.181,1.651-0.541c0.856-0.628,1.28-1.685,1.099-2.729l-4.683-26.789l19.844-18.984
				C95.948,241.246,96.233,240.134,95.906,239.118z"/>
		</g>
	</g>
	<g id="Layer_2" display="none">
		<path display="inline" fill="#FFAF3B" d="M42.504,225.255c0,0-7.678,17.517-5.999,31.674c1.68,14.156,10.881,23.182,10.881,23.182
			l-16.119,8.316l-8.919,2.603l3.081-18.313l1.283-12.486l-18.25-17.458v-4.319l5.727-2.159l10.078-0.48l11.757-2.879l4.079-5.039
			l0.58-2.64H42.504z"/>
	</g>
	<g>
		<g>
			<path fill="none" stroke="#262626" stroke-width="4" stroke-miterlimit="10" d="M95.906,239.118
				c-0.329-1.021-1.205-1.76-2.262-1.911l-27.469-3.916l-12.273-24.407c-0.949-1.885-4.037-1.885-4.985,0l-12.273,24.407
				l-27.47,3.916c-1.057,0.151-1.933,0.89-2.262,1.908c-0.326,1.015-0.045,2.131,0.728,2.867l19.844,18.984L22.8,287.756
				c-0.182,1.047,0.243,2.101,1.099,2.729c0.856,0.63,1.991,0.723,2.932,0.231l24.578-12.681l24.58,12.681
				c0.402,0.209,0.842,0.313,1.28,0.313c0.583,0,1.163-0.181,1.651-0.541c0.856-0.628,1.28-1.685,1.099-2.729l-4.683-26.789
				l19.844-18.984C95.948,241.246,96.233,240.134,95.906,239.118z"/>
		</g>
	</g>
</g>
<g id="Layer_1_copy">
	<g display="none">
		<g display="inline">
			<path fill="#FFD039" d="M194.425,239.118c-0.329-1.021-1.205-1.76-2.262-1.911l-27.469-3.916l-12.273-24.407
				c-0.948-1.885-4.036-1.885-4.984,0l-12.273,24.407l-27.47,3.916c-1.057,0.151-1.933,0.89-2.262,1.908
				c-0.326,1.015-0.044,2.131,0.728,2.867l19.844,18.984l-4.684,26.789c-0.181,1.047,0.243,2.101,1.099,2.729
				c0.856,0.63,1.991,0.723,2.932,0.231l24.577-12.681l24.58,12.681c0.401,0.209,0.842,0.313,1.28,0.313
				c0.583,0,1.163-0.181,1.651-0.541c0.857-0.628,1.28-1.685,1.099-2.729l-4.683-26.789l19.843-18.984
				C194.467,241.246,194.752,240.134,194.425,239.118z"/>
		</g>
	</g>
	<g id="Layer_2_copy" display="none">
		<path display="inline" fill="#FFAF3B" d="M141.023,225.255c0,0-7.678,17.517-5.999,31.674
			c1.68,14.156,10.881,23.182,10.881,23.182l-16.119,8.316l-8.919,2.603l3.081-18.313l1.283-12.486l-18.25-17.458v-4.319
			l5.727-2.159l10.078-0.48l11.758-2.879l4.079-5.039l0.58-2.64H141.023z"/>
	</g>
	<g>
		<g>
			<path fill="none" stroke="#262626" stroke-width="4" stroke-miterlimit="10" d="M194.425,239.118
				c-0.329-1.021-1.205-1.76-2.262-1.911l-27.469-3.916l-12.273-24.407c-0.948-1.885-4.036-1.885-4.984,0l-12.273,24.407
				l-27.47,3.916c-1.057,0.151-1.933,0.89-2.262,1.908c-0.326,1.015-0.044,2.131,0.728,2.867l19.844,18.984l-4.684,26.789
				c-0.181,1.047,0.243,2.101,1.099,2.729c0.856,0.63,1.991,0.723,2.932,0.231l24.577-12.681l24.58,12.681
				c0.401,0.209,0.842,0.313,1.28,0.313c0.583,0,1.163-0.181,1.651-0.541c0.857-0.628,1.28-1.685,1.099-2.729l-4.683-26.789
				l19.843-18.984C194.467,241.246,194.752,240.134,194.425,239.118z"/>
		</g>
	</g>
</g>
<g id="Layer_1_copy_3">
	<g display="none">
		<g display="inline">
			<path fill="#FFD039" d="M292.664,239.118c-0.328-1.021-1.204-1.76-2.262-1.911l-27.47-3.916l-12.272-24.407
				c-0.949-1.885-4.037-1.885-4.985,0l-12.274,24.407l-27.469,3.916c-1.057,0.151-1.933,0.89-2.262,1.908
				c-0.326,1.015-0.044,2.131,0.728,2.867l19.844,18.984l-4.683,26.789c-0.181,1.047,0.243,2.101,1.099,2.729
				c0.856,0.63,1.991,0.723,2.931,0.231l24.578-12.681l24.58,12.681c0.401,0.209,0.842,0.313,1.28,0.313
				c0.583,0,1.162-0.181,1.65-0.541c0.857-0.628,1.281-1.685,1.1-2.729l-4.684-26.789l19.844-18.984
				C292.707,241.246,292.991,240.134,292.664,239.118z"/>
		</g>
	</g>
	<g id="Layer_2_copy_3" display="none">
		<path display="inline" fill="#FFAF3B" d="M239.262,225.255c0,0-7.679,17.517-5.999,31.674
			c1.68,14.156,10.881,23.182,10.881,23.182l-16.119,8.316l-8.919,2.603l3.081-18.313l1.283-12.486l-18.249-17.458v-4.319
			l5.727-2.159l10.078-0.48l11.757-2.879l4.08-5.039l0.58-2.64H239.262z"/>
	</g>
	<g>
		<g>
			<path fill="none" stroke="#262626" stroke-width="4" stroke-miterlimit="10" d="M292.664,239.118
				c-0.328-1.021-1.204-1.76-2.262-1.911l-27.47-3.916l-12.272-24.407c-0.949-1.885-4.037-1.885-4.985,0l-12.274,24.407
				l-27.469,3.916c-1.057,0.151-1.933,0.89-2.262,1.908c-0.326,1.015-0.044,2.131,0.728,2.867l19.844,18.984l-4.683,26.789
				c-0.181,1.047,0.243,2.101,1.099,2.729c0.856,0.63,1.991,0.723,2.931,0.231l24.578-12.681l24.58,12.681
				c0.401,0.209,0.842,0.313,1.28,0.313c0.583,0,1.162-0.181,1.65-0.541c0.857-0.628,1.281-1.685,1.1-2.729l-4.684-26.789
				l19.844-18.984C292.707,241.246,292.991,240.134,292.664,239.118z"/>
		</g>
	</g>
</g>
<g id="Layer_1_copy_2">
	<g display="none">
		<g display="inline">
			<path fill="#FFD039" d="M391.184,239.118c-0.33-1.021-1.205-1.76-2.263-1.911l-27.47-3.916l-12.272-24.407
				c-0.948-1.885-4.037-1.885-4.984,0l-12.274,24.407l-27.469,3.916c-1.057,0.151-1.934,0.89-2.263,1.908
				c-0.326,1.015-0.045,2.131,0.728,2.867l19.845,18.984l-4.684,26.789c-0.181,1.047,0.242,2.101,1.1,2.729
				c0.855,0.63,1.99,0.723,2.931,0.231l24.577-12.681l24.58,12.681c0.401,0.209,0.842,0.313,1.28,0.313
				c0.583,0,1.164-0.181,1.651-0.541c0.856-0.628,1.28-1.685,1.099-2.729l-4.683-26.789l19.843-18.984
				C391.225,241.246,391.51,240.134,391.184,239.118z"/>
		</g>
	</g>
	<g id="Layer_2_copy_2" display="none">
		<path display="inline" fill="#FFAF3B" d="M337.781,225.255c0,0-7.679,17.517-5.999,31.674
			c1.68,14.156,10.881,23.182,10.881,23.182l-16.118,8.316l-8.92,2.603l3.081-18.313l1.283-12.486l-18.249-17.458v-4.319
			l5.727-2.159l10.078-0.48l11.758-2.879l4.079-5.039l0.58-2.64H337.781z"/>
	</g>
	<g>
		<g>
			<path fill="none" stroke="#262626" stroke-width="4" stroke-miterlimit="10" d="M391.184,239.118
				c-0.33-1.021-1.205-1.76-2.263-1.911l-27.47-3.916l-12.272-24.407c-0.948-1.885-4.037-1.885-4.984,0l-12.274,24.407
				l-27.469,3.916c-1.057,0.151-1.934,0.89-2.263,1.908c-0.326,1.015-0.045,2.131,0.728,2.867l19.845,18.984l-4.684,26.789
				c-0.181,1.047,0.242,2.101,1.1,2.729c0.855,0.63,1.99,0.723,2.931,0.231l24.577-12.681l24.58,12.681
				c0.401,0.209,0.842,0.313,1.28,0.313c0.583,0,1.164-0.181,1.651-0.541c0.856-0.628,1.28-1.685,1.099-2.729l-4.683-26.789
				l19.843-18.984C391.225,241.246,391.51,240.134,391.184,239.118z"/>
		</g>
	</g>
</g>
<g id="Layer_1_copy_4">
	<g display="none">
		<g display="inline">
			<path fill="#FFD039" d="M491.003,239.118c-0.33-1.021-1.206-1.76-2.263-1.911l-27.47-3.916l-12.272-24.407
				c-0.949-1.885-4.037-1.885-4.985,0l-12.273,24.407l-27.469,3.916c-1.058,0.151-1.934,0.89-2.263,1.908
				c-0.326,1.015-0.045,2.131,0.728,2.867l19.845,18.984l-4.685,26.789c-0.181,1.047,0.243,2.101,1.1,2.729
				c0.856,0.63,1.991,0.723,2.932,0.231l24.576-12.681l24.58,12.681c0.402,0.209,0.843,0.313,1.28,0.313
				c0.583,0,1.164-0.181,1.651-0.541c0.857-0.628,1.281-1.685,1.099-2.729l-4.683-26.789l19.844-18.984
				C491.044,241.246,491.329,240.134,491.003,239.118z"/>
		</g>
	</g>
	<g id="Layer_2_copy_4" display="none">
		<path display="inline" fill="#FFAF3B" d="M437.6,225.255c0,0-7.678,17.517-5.998,31.674c1.68,14.156,10.881,23.182,10.881,23.182
			l-16.119,8.316l-8.919,2.603l3.081-18.313l1.283-12.486l-18.25-17.458v-4.319l5.728-2.159l10.078-0.48l11.757-2.879l4.079-5.039
			l0.58-2.64H437.6z"/>
	</g>
	<g>
		<g>
			<path fill="none" stroke="#262626" stroke-width="4" stroke-miterlimit="10" d="M491.003,239.118
				c-0.33-1.021-1.206-1.76-2.263-1.911l-27.47-3.916l-12.272-24.407c-0.949-1.885-4.037-1.885-4.985,0l-12.273,24.407
				l-27.469,3.916c-1.058,0.151-1.934,0.89-2.263,1.908c-0.326,1.015-0.045,2.131,0.728,2.867l19.845,18.984l-4.685,26.789
				c-0.181,1.047,0.243,2.101,1.1,2.729c0.856,0.63,1.991,0.723,2.932,0.231l24.576-12.681l24.58,12.681
				c0.402,0.209,0.843,0.313,1.28,0.313c0.583,0,1.164-0.181,1.651-0.541c0.857-0.628,1.281-1.685,1.099-2.729l-4.683-26.789
				l19.844-18.984C491.044,241.246,491.329,240.134,491.003,239.118z"/>
		</g>
	</g>
</g>
</svg>
